<?xml version="1.0" encoding="utf-8"?>
<!-- Generator: Adobe Illustrator 27.5.0, SVG Export Plug-In . SVG Version: 6.00 Build 0)  -->
<svg version="1.1" id="Layer_1" xmlns="http://www.w3.org/2000/svg" xmlns:xlink="http://www.w3.org/1999/xlink" x="0px" y="0px"
	 viewBox="0 0 2122 2122" style="enable-background:new 0 0 2122 2122;" xml:space="preserve">
<g>
	<g>
		<defs>
			<rect id="SVGID_1_" x="0" width="2121.32" height="2121.32"/>
		</defs>
		<use xlink:href="#SVGID_1_"  style="overflow:visible;fill:#FFFFFF;"/>
		<clipPath id="SVGID_00000011031224578901736960000009093860874730490781_">
			<use xlink:href="#SVGID_1_"  style="overflow:visible;"/>
		</clipPath>
		<g style="clip-path:url(#SVGID_00000011031224578901736960000009093860874730490781_);">
			<g>
				<path style="fill:#ABABAB;" d="M2222.752,2222.752H-101.432V-101.432h2324.184V2222.752z M-100.151,2221.471h2321.622V-100.151
					H-100.151V2221.471z"/>
			</g>
			<g>
				<rect x="-100.791" y="2161.909" style="fill:#ABABAB;" width="2322.903" height="1.281"/>
			</g>
			<g>
				<rect x="-100.791" y="2102.347" style="fill:#ABABAB;" width="2322.903" height="1.281"/>
			</g>
			<g>
				<rect x="-100.791" y="2042.787" style="fill:#ABABAB;" width="2322.903" height="1.281"/>
			</g>
			<g>
				<path style="fill:#ABABAB;" d="M1065.176,1994.532c-50.09,0-100.302-1.232-150.329-4.529
					c-13.148-0.579-26.426-1.254-39.267-1.906c-33.673-1.709-68.494-3.476-102.596-3.592h-873.775v-1.282h873.778
					c34.135,0.116,68.969,1.884,102.66,3.594c12.838,0.652,26.114,1.326,39.273,1.905c125.888,8.294,253.087,3.519,376.1-1.097
					c19.249-0.723,38.52-1.446,57.825-2.124c49.593-1.838,97.735-2.183,138.286-2.278h734.982v1.282h-734.981
					c-40.539,0.095-88.667,0.44-138.241,2.277c-19.305,0.677-38.576,1.402-57.824,2.124
					C1216.897,1991.691,1141.189,1994.532,1065.176,1994.532z"/>
			</g>
			<g>
				<path style="fill:#ABABAB;" d="M1116.572,1957.321c-127.485,0-253.949-11.738-377.415-23.197
					c-22.824-2.119-45.671-4.24-68.552-6.292c-40.924-3.719-82.571-3.379-122.849-3.051c-15.175,0.124-30.868,0.258-46.316,0.162
					h-602.231v-1.281h602.235c15.446,0.091,31.132-0.038,46.303-0.163c40.308-0.325,81.988-0.67,122.975,3.057
					c22.88,2.053,45.728,4.174,68.554,6.292c172.896,16.046,351.679,32.642,530.846,16.766c33.358-2.901,66.784-6.468,99.108-9.918
					c81.229-8.671,165.228-17.625,250.661-16.034h602.222v1.281h-602.235c-85.377-1.597-169.323,7.36-250.512,16.027
					c-32.332,3.45-65.763,7.018-99.133,9.92C1218.933,1955.436,1167.67,1957.321,1116.572,1957.321z"/>
			</g>
			<g>
				<path style="fill:#ABABAB;" d="M1103.34,1923.628c-150.37,0.001-310.611-16.517-486.599-49.608
					c-36.876-7.373-75.654-10.273-115.272-8.639l-602.261,0.001v-1.281h602.235c39.692-1.651,78.574,1.267,115.543,8.662
					c336.541,63.282,615.494,65.922,877.872,8.311c10.38-1.735,20.617-3.638,30.516-5.479c31.79-5.911,61.817-11.494,94.503-11.494
					h602.235v1.281h-602.235c-32.568,0-62.538,5.573-94.268,11.473c-9.904,1.841-20.147,3.747-30.508,5.477
					C1369.786,1909.849,1240.68,1923.628,1103.34,1923.628z"/>
			</g>
			<g>
				<path style="fill:#ABABAB;" d="M1069.898,1894.808c-159.696,0-310.633-22.193-449.405-66.135
					c-11.314-2.541-22.309-5.453-32.941-8.27c-28.308-7.498-55.045-14.583-86.109-14.583h-602.235v-1.281h602.235
					c31.231,0,58.047,7.104,86.437,14.625c10.621,2.814,21.604,5.725,32.947,8.272c290.535,91.997,619.81,88.329,1006.691-11.211
					c76.181-10.794,153.037-11.686,231.639-11.686h362.954v1.281h-362.954c-78.555,0-155.362,0.892-231.39,11.661
					c-181.01,46.574-345.76,71.596-503.596,76.482C1105.975,1894.527,1087.879,1894.808,1069.898,1894.808z"/>
			</g>
			<g>
				<path style="fill:#ABABAB;" d="M1079.588,1863.607c-204.717,0-402.719-35.174-588.876-104.64
					c-78.85-12.708-165.373-12.708-228.549-12.708h-362.954v-1.281h362.954c63.22,0,149.802,0,228.875,12.757
					c375.958,140.28,787.115,140.188,1222.173-0.244c43.396-13.706,87.364-13.181,129.891-12.676
					c5.357,0.063,10.711,0.127,16.06,0.163h362.95v1.281h-362.953c-5.356-0.036-10.712-0.099-16.071-0.164
					c-42.425-0.51-86.288-1.027-129.488,12.615c-208.579,67.325-415.213,102.581-614.159,104.787
					C1092.823,1863.57,1086.191,1863.607,1079.588,1863.607z"/>
			</g>
			<g>
				<path style="fill:#ABABAB;" d="M1090.65,1839.228c-209.639,0-416.757-43.016-611.16-129.034
					c-62.147-15.799-133.27-23.496-217.328-23.496h-362.954v-1.281h362.954c84.166,0,155.392,7.71,217.745,23.571
					c386.74,171.112,823.772,171.955,1230.691,2.405c48.005-18.669,102.219-23.314,148.921-25.397
					c69.535-0.509,132.661-0.579,190.524-0.579h172.068v1.281h-172.068c-57.86,0-120.984,0.07-190.49,0.58
					c-46.576,2.076-100.658,6.707-148.476,25.303C1508.43,1797.017,1298.303,1839.228,1090.65,1839.228z"/>
			</g>
			<g>
				<path style="fill:#ABABAB;" d="M1117.102,1813.943c-21.931,0-43.993-0.527-66.256-1.585
					c-102.852-4.888-209.197-21.272-316.083-48.698c-101.486-26.039-204.168-62.193-305.192-107.457
					c-57.414-24.606-119.853-28.182-167.835-28.549c-69.345-0.479-129.661-0.519-190.461-0.519h-172.067v-1.281H71.276
					c60.802,0,121.119,0.04,190.471,0.519c48.1,0.367,110.705,3.957,168.339,28.656
					c447.112,200.332,887.501,209.819,1240.051,26.727c13.613-5.318,26.467-10.672,38.899-15.848
					c49.919-20.786,93.029-38.738,150.106-40.054h362.97v1.281h-362.954c-56.823,1.31-99.83,19.219-149.63,39.957
					c-12.438,5.179-25.299,10.534-38.864,15.829C1503.073,1769.962,1317.1,1813.943,1117.102,1813.943z"/>
			</g>
			<g>
				<path style="fill:#ABABAB;" d="M1110.528,1785.078c-17.111,0-34.276-0.343-51.494-1.028
					c-211.874-8.437-432.209-69.484-637.184-176.541c-42.506-22.371-94.995-35.196-160.468-39.21
					c-72.394-0.638-136.728-0.724-190.106-0.724h-172.067v-1.281H71.276c53.382,0,117.718,0.086,190.151,0.725
					c65.693,4.025,118.351,16.898,161.019,39.355c435.13,227.264,896.94,237.57,1267.026,28.27
					c20.463-9.139,37.665-18.98,54.302-28.498c35.97-20.58,67.037-38.354,115.364-39.852h362.975v1.281h-362.954
					c-47.99,1.489-78.926,19.188-114.749,39.683c-16.663,9.533-33.895,19.39-54.361,28.529
					c-96.064,54.331-199.652,94.433-307.837,119.168C1294.614,1774.982,1203.443,1785.078,1110.528,1785.078z"/>
			</g>
			<g>
				<path style="fill:#ABABAB;" d="M1100.176,1760.162c-87.12,0-175.87-11.356-268.087-34.152
					c-127.247-31.457-259.311-84.589-403.74-162.432c-12.035-5.492-23.209-11.026-34.012-16.378
					c-40.996-20.311-76.401-37.851-132.189-39.187h-362.94v-1.282h362.954c56.087,1.344,91.612,18.943,132.744,39.32
					c10.794,5.348,21.956,10.877,34.013,16.379c312.899,168.643,579.354,226.539,838.588,182.227
					c140.098-22.21,264.421-78.598,384.65-133.128c60.276-27.339,122.604-55.609,186.565-79.488
					c67.605-26,140.668-25.645,211.325-25.31h172.065v1.282h-172.068c-70.537-0.347-143.481-0.692-210.867,25.227
					c-63.927,23.866-126.234,52.126-186.489,79.456c-120.308,54.566-244.709,110.99-384.973,133.228
					C1212.229,1755.408,1156.541,1760.162,1100.176,1760.162z"/>
			</g>
			<g>
				<path style="fill:#ABABAB;" d="M1082.393,1717.73c-115.398,0.003-228.89-16.291-337.716-48.505
					c-118.857-35.183-231.726-89.274-335.474-160.771c-15.817-7.769-28.9-15.888-41.554-23.739
					c-30.186-18.732-56.256-34.908-105.503-36.265h-362.936v-1.281h362.954c49.611,1.366,75.817,17.628,106.162,36.458
					c12.626,7.835,25.683,15.937,41.525,23.725c201.832,139.086,434.719,208.529,673.525,208.529
					c246.869,0,500.07-74.147,732.169-222.21c70.554-47.034,158.052-48.666,234.518-46.502h172.05v1.281h-172.068
					c-76.284-2.157-163.548-0.54-233.8,46.294c-221.748,141.461-468.032,218.5-712.238,222.796
					C1096.801,1717.668,1089.583,1717.73,1082.393,1717.73z"/>
			</g>
			<g>
				<path style="fill:#ABABAB;" d="M1108.419,1677.275c-65.428,0-131.71-5.935-198.64-17.823
					c-173.844-30.879-348.367-100.945-518.719-208.253c-47.09-29.741-94.12-42.898-150.25-53.502
					c-50.369-8.127-111.372-8.807-169.535-8.807h-172.067v-1.281H71.276c58.216,0,119.277,0.681,169.756,8.827
					c56.291,10.635,103.453,23.831,150.712,53.68c251.575,158.473,640.599,315.994,1065.248,166.469
					c71.858-25.469,140.169-63.767,206.231-100.802c59.685-33.461,121.401-68.061,184.82-92.534
					c71.074-27.427,137.16-39.086,202.034-35.638l172.034-0.001v1.281h-172.068c-144.21-7.655-267.223,61.312-386.194,128.01
					c-66.109,37.063-134.469,75.387-206.432,100.894C1344.901,1657.41,1228.1,1677.275,1108.419,1677.275z"/>
			</g>
			<g>
				<path style="fill:#ABABAB;" d="M1087.188,1622.535c-20.844,0-41.836-0.698-63.01-2.146
					c-109.272-7.126-219.537-32.701-337.094-78.184c-93.642-36.23-190.464-84.048-313.936-155.043
					c-97.167-55.149-206.761-58.781-301.867-57.835h-172.074v-1.281H71.276c95.254-0.926,205.061,2.694,302.509,58.003
					c194.23,111.682,407.461,217.213,650.479,233.062c303.447,20.752,572.481-112.621,822.058-251
					c65.898-34.267,136.767-38.581,203.709-40.065h172.081v1.281h-172.068c-66.775,1.48-137.476,5.781-203.116,39.912
					C1614.604,1498.054,1365.376,1622.532,1087.188,1622.535z"/>
			</g>
			<g>
				<path style="fill:#ABABAB;" d="M1113.505,1549.429c-116.737,0.001-233.911-18.486-356.882-56.207
					c-118.952-36.486-241.034-90.452-373.222-164.984c-101.793-56.255-214.896-61.118-312.108-58.472h-172.085v-1.281H71.276
					c97.367-2.653,210.682,2.228,312.751,58.634c282.642,159.363,527.583,229.359,770.836,220.254
					c202.333-7.635,383.619-92.157,558.936-173.898c59.918-27.936,121.878-56.823,183.832-82.257
					c46.167-19.44,94.312-23.153,152.419-22.734h172.063v1.281h-172.068c-57.966-0.423-105.948,3.278-151.922,22.635
					c-61.932,25.424-123.877,54.306-183.783,82.236c-175.432,81.793-356.837,166.371-559.43,174.016
					C1141.115,1549.17,1127.304,1549.429,1113.505,1549.429z"/>
			</g>
			<g>
				<path style="fill:#ABABAB;" d="M1078.29,1446.223c-3.518,0-7.01-0.017-10.519-0.05
					c-217.035-4.095-419.504-81.457-615.309-156.271c-49.369-18.864-100.419-38.369-150.946-56.415
					c-67.422-23.248-139.501-23.254-209.206-23.259c-7.031,0-14.045-0.001-21.036-0.025h-172.065v-1.281H71.276
					c6.992,0.024,14.005,0.025,21.034,0.025c69.811,0.005,141.999,0.01,209.631,23.331c50.546,18.052,101.603,37.561,150.979,56.426
					c195.701,74.776,398.066,152.096,614.87,156.187c276.046,2.658,533.425-97.269,773.467-199.786
					c58.412-24.713,122.804-35.872,208.785-36.182h172.07v1.281h-172.068c-85.802,0.31-150.039,11.438-208.287,36.08
					c-117.783,50.305-245.018,102.118-377.329,140.297C1325.462,1426.681,1199.003,1446.223,1078.29,1446.223z"/>
			</g>
			<g>
				<path style="fill:#ABABAB;" d="M1113.374,1298.407c-84.698,0.001-172.032-5.831-263.131-17.489
					c-185.25-23.706-369.661-69.65-525.62-111.466c-81.602-22.254-164.552-20.592-244.779-18.98l-8.556,0.17h-172.08v-1.281H71.276
					l8.543-0.17c80.307-1.616,163.359-3.278,245.14,19.025c328.098,87.969,680.24,168.737,1060.407,107.591
					c98.827-14.692,193.444-38.78,284.948-62.077c83.668-21.302,170.187-43.329,258.777-57.781
					c37.338-4.174,69.084-6.589,120.953-6.589h172.068v1.281h-172.068c-51.81,0-83.518,2.411-120.779,6.577
					c-88.503,14.438-174.992,36.459-258.634,57.753c-91.535,23.304-186.185,47.401-285.069,62.102
					C1297.123,1291.298,1206.858,1298.406,1113.374,1298.407z"/>
			</g>
			<g>
				<path style="fill:#ABABAB;" d="M1176.319,1106.3c-321.97,0-643.01-6.249-958.038-12.38
					c-49.006-0.953-98.012-1.908-147.018-2.838h-172.055v-1.281H71.276c49.018,0.932,98.024,1.885,147.03,2.838
					c314.982,6.131,636.082,12.38,958.005,12.38c251.817,0,504.099-3.82,754.607-14.509c32.04-0.388,63.103-0.709,119.126-0.709
					h172.068v1.281h-172.068c-56.015,0-87.075,0.321-119.092,0.709C1680.469,1102.478,1428.109,1106.3,1176.319,1106.3z"/>
			</g>
			<g>
				<path style="fill:#ABABAB;" d="M156.715,1032.039c-12.69,0-25.464-0.135-38.404-0.273c-15.369-0.163-31.26-0.329-47.032-0.246
					h-172.071v-1.282H71.276c15.78-0.077,31.674,0.085,47.048,0.247c58.936,0.625,114.601,1.213,173.03-10.875
					c275.704-64.792,523.179-99.052,756.553-104.737c262.594-6.403,508.818,22.838,752.779,89.373
					c47.979,14.111,92.241,18.408,129.213,20.751c37.199,3.319,68.776,5.24,120.146,5.24h172.068v1.282h-172.068
					c-51.416,0-83.024-1.923-120.242-5.244c-37.027-2.346-81.378-6.653-129.466-20.796
					c-455.74-124.293-935.147-119.406-1508.706,15.381C245.895,1030.322,201.889,1032.039,156.715,1032.039z"/>
			</g>
			<g>
				<path style="fill:#ABABAB;" d="M121.222,972.795c-16.798,0.001-33.469-0.335-49.966-0.838h-172.047v-1.281H71.276
					c88.936,2.708,183.336,0.58,271.22-33.022c132.458-51.512,275.439-104.122,423.453-139.976
					c160.023-38.759,304.861-52.49,442.789-41.967c157.89,11.163,305.046,64.146,447.357,115.384
					c87.125,31.37,177.216,63.807,270.116,87.031c35.861,8.965,74.022,12.815,123.83,12.55h172.072v1.281h-172.068
					c-49.863,0.311-88.175-3.595-124.144-12.587c-92.962-23.241-183.085-55.689-270.239-87.068
					c-142.229-51.209-289.3-104.163-447.017-115.314c-307.07-23.436-596.038,76.998-865.687,181.861
					C271.178,966.293,195.104,972.795,121.222,972.795z"/>
			</g>
			<g>
				<path style="fill:#ABABAB;" d="M2222.112,912.397h-172.068c-65.471-3.822-139.637-8.154-208.822-42.746
					C1538.149,715.2,1277.579,617.76,990.975,644.258c-194.981,18.09-369.77,97.729-538.803,174.745
					c-46.497,21.186-94.578,43.092-142.504,63.474c-65.384,28.334-135.015,28.91-202.353,29.467
					c-11.833,0.098-24.07,0.199-36.025,0.453h-172.081v-1.281H71.276c11.949-0.254,24.19-0.355,36.028-0.453
					c67.21-0.557,136.709-1.131,201.858-29.363c47.915-20.377,95.988-42.281,142.478-63.463
					c169.131-77.061,344.019-156.743,539.217-174.855c139.934-12.932,283.849,3.832,439.952,51.265
					c150.69,45.789,292.319,113.784,410.989,174.26c68.947,34.474,142.971,38.796,208.283,42.61l172.03-0.001V912.397z"/>
			</g>
			<g>
				<path style="fill:#ABABAB;" d="M2030.506,853.347c-121.708,0.004-227.394-59.348-329.783-116.843
					c-37.641-21.137-76.563-42.991-115.691-61.561c-217.791-102.337-446.955-135.068-681.122-97.305
					c-149.279,23.483-277.98,88.889-402.443,152.141c-65.831,33.456-133.905,68.052-204.621,96.337
					c-69.845,27.439-143.476,28.334-225.583,26.718h-172.055v-1.281H71.276c81.968,1.606,155.476,0.724,225.098-26.628
					c70.66-28.264,138.707-62.846,204.514-96.288c124.551-63.298,253.344-128.751,402.82-152.264
					c117.462-18.945,235.402-20.022,350.549-3.204c112.845,16.484,224.316,50.335,331.322,100.615
					c39.171,18.589,78.112,40.456,115.771,61.602c107.668,60.458,219.007,122.964,348.661,116.168l172.101-0.001v1.281h-172.068
					C2043.49,853.179,2036.969,853.347,2030.506,853.347z"/>
			</g>
			<g>
				<path style="fill:#ABABAB;" d="M142.417,794.817c-18.438,0-36.933-0.547-55.279-1.087c-5.302-0.157-10.597-0.313-15.88-0.456
					h-172.049v-1.281H71.276c5.302,0.143,10.597,0.299,15.9,0.455c73.668,2.171,149.843,4.42,214.261-28.981
					c29.439-13.985,59.306-28.432,88.191-42.406c136.598-66.078,277.847-134.407,422.714-177.332
					c78.011-23.116,150.773-37.216,222.446-43.104c80.472-6.613,157.505-2.784,235.506,11.703
					c156.501,28.781,292.641,97.892,424.3,164.729c56.029,28.442,113.967,57.854,172.795,83.831
					c50.733,23.059,112.177,33.53,182.635,31.105h172.09v1.281h-172.068c-70.627,2.436-132.273-8.079-183.18-31.218
					c-58.853-25.987-116.806-55.406-172.852-83.859c-131.576-66.794-267.632-135.862-423.95-164.61
					c-324.163-60.207-606.667,76.463-879.876,208.627c-28.887,13.974-58.756,28.424-88.178,42.398
					C253.389,789.823,198.184,794.817,142.417,794.817z"/>
			</g>
			<g>
				<path style="fill:#ABABAB;" d="M2019.065,734.374c-66.679,0-118.47-9.913-165.013-31.246
					c-44.545-20.116-89.697-41.775-133.362-62.72c-190.861-91.551-388.219-186.218-606.802-188.3
					c-215.167-2.186-440.289,68.03-708.497,220.932c-16.304,8.109-29.296,16.599-41.86,24.809
					c-28.326,18.511-52.791,34.497-101.349,35.862h-362.972v-1.281h362.954c48.18-1.354,72.503-17.248,100.666-35.653
					c12.595-8.232,25.619-16.742,41.958-24.869c123.428-70.364,234.887-122.011,340.718-157.873
					c129.06-43.735,249.588-64.375,368.395-63.209c218.867,2.085,416.357,96.815,607.344,188.426
					c43.659,20.943,88.805,42.597,133.339,62.709c53.319,24.439,113.592,33.829,195.436,30.469h172.094v1.281h-172.068
					C2039.366,734.151,2029.045,734.374,2019.065,734.374z"/>
			</g>
			<g>
				<path style="fill:#ABABAB;" d="M2028.205,674.26c-87.091,0-171.109-6.15-245.95-50.587
					c-427.424-264.593-947.667-267.144-1357.72-6.659c-13.411,6.256-25.455,12.549-37.103,18.634
					c-38.162,19.935-71.12,37.152-125.253,38.501h-362.97v-1.281h362.954c53.82-1.342,86.655-18.494,124.675-38.357
					c11.662-6.091,23.719-12.39,37.083-18.618c200.934-127.65,431.436-195.055,666.872-195.055c2.029,0,4.036,0.005,6.066,0.016
					c237.529,1.167,474.763,70.924,686.061,201.725c80.781,47.963,172.463,51.171,267.119,50.29h172.074v1.281h-172.068
					C2042.75,674.218,2035.461,674.26,2028.205,674.26z"/>
			</g>
			<g>
				<path style="fill:#ABABAB;" d="M2222.112,614.589h-362.954c-47.085-1.545-76.058-19.414-109.604-40.105
					c-16.73-10.319-34.029-20.989-55.235-30.71c-373.759-215.346-853.155-207.328-1251.155,20.901
					c-4.6,1.934-9.059,3.817-13.464,5.677c-54.503,23.018-101.574,42.897-167.525,44.236h-362.967v-1.281h362.954
					c65.691-1.334,112.657-21.168,167.039-44.135c4.406-1.86,8.865-3.744,13.395-5.643c191.717-109.943,408-170.989,625.398-176.506
					c223.576-5.674,440.371,48.136,626.91,155.613c21.224,9.726,38.558,20.419,55.322,30.756
					c33.391,20.595,62.229,38.382,108.952,39.915h362.934V614.589z"/>
			</g>
			<g>
				<path style="fill:#ABABAB;" d="M2222.112,555.027h-362.954c-54.299-1.354-93.881-19.092-139.711-39.629
					c-14.236-6.379-28.956-12.975-44.871-19.409C1315.417,308.904,863.715,318.11,435.231,521.222
					c-47.602,22.668-102.329,33.242-172.103,33.242c-0.485,0-0.965,0-1.45-0.001c-70.651,0.52-132.801,0.564-190.402,0.564h-172.067
					v-1.282H71.276c57.598,0,119.745-0.043,190.398-0.564c0.48,0.002,0.967,0.002,1.446,0.002
					c69.592,0,124.132-10.533,171.562-33.118c99.768-47.292,202.571-84.775,305.554-111.405
					c106.067-27.426,212.588-43.394,316.608-47.456c223.281-8.726,431.311,36.235,618.268,133.623
					c15.881,6.418,30.612,13.02,44.858,19.403c45.705,20.482,85.178,38.169,139.204,39.516h362.938V555.027z"/>
			</g>
			<g>
				<path style="fill:#ABABAB;" d="M266.517,495.471c-1.462,0-2.913-0.002-4.356-0.007h-362.953v-1.281h362.954
					c63.929,0.163,147.209-3.147,223.819-30.509c20.631-6.79,41.526-13.766,61.732-20.511
					c185.124-61.803,359.976-120.202,553.377-117.875c169.77,0,324.052,49.195,487.393,101.277
					c59.043,18.827,120.095,38.294,181.458,55.029c19.902,4.975,38.403,6.69,57.991,8.505c10.286,0.953,20.922,1.939,31.781,3.441
					c71.553,0.566,136.372,0.643,190.331,0.643h172.068v1.281h-172.068c-53.961,0-118.785-0.077-190.424-0.649
					c-10.914-1.503-21.534-2.488-31.807-3.441c-19.638-1.82-38.188-3.538-58.197-8.541
					c-61.401-16.746-122.466-36.218-181.522-55.048c-163.242-52.053-317.433-101.217-487.011-101.217
					c-193.211-2.25-367.946,56.042-552.964,117.809c-20.207,6.746-41.103,13.722-61.722,20.508
					C411.346,491.69,329.979,495.471,266.517,495.471z"/>
			</g>
			<g>
				<path style="fill:#ABABAB;" d="M2222.112,435.904h-172.068c-52.499,0-117.836,0-190.671-0.396l-11.25-0.234
					c-56.719-1.157-115.367-2.352-170.795-21.631c-387.721-142.845-798.671-140.387-1188.437,7.106
					c-75.358,13.987-156.542,15.156-226.729,15.156h-362.954v-1.281h362.954c70.13,0,151.243-1.168,226.386-15.103
					c192.137-72.719,391.574-110.383,592.662-111.917c4.258-0.032,8.53-0.049,12.788-0.049c198.48,0,394.801,35.266,583.761,104.883
					c55.224,19.207,113.771,20.401,170.389,21.556l11.241,0.233c72.822,0.397,138.155,0.397,190.653,0.397h172.068V435.904z"/>
			</g>
			<g>
				<path style="fill:#ABABAB;" d="M2222.112,376.342h-362.954c-69.218,0-149.745-1.112-229.525-14.389
					C1262.209,254.539,921.93,250.355,618.179,349.511c-13.147,3.201-25.491,7.129-37.431,10.927
					c-25.709,8.179-49.992,15.904-79.305,15.904h-602.235v-1.281h602.235c29.114,0,53.306-7.696,78.917-15.844
					c11.959-3.804,24.327-7.739,37.468-10.939c157.391-51.378,327.401-75.093,505.299-70.458
					c162.642,4.234,333.152,32.121,506.79,82.886c79.609,13.243,160.074,14.354,229.24,14.354h362.954V376.342z"/>
			</g>
			<g>
				<path style="fill:#ABABAB;" d="M516.497,317.514c-5.224,0-10.285-0.244-15.119-0.737l-602.17,0.004V315.5h602.235
					c19.16,1.947,41.874-0.027,64.022-5.565c141.023-25.021,307.119-51.546,470.124-58.627
					c169.936-7.382,320.953,6.761,461.688,43.237c13.155,2.439,25.921,5.401,38.268,8.267c28.117,6.525,54.676,12.689,84.333,12.689
					h602.235v1.281h-602.235c-29.805,0-56.431-6.18-84.622-12.722c-12.332-2.862-25.085-5.823-38.256-8.264
					c-316.687-82.074-633.7-37.402-931.266,15.392C549.076,315.353,532.068,317.514,516.497,317.514z"/>
			</g>
			<g>
				<path style="fill:#ABABAB;" d="M593.646,258.663c-15.604,0-31.306-0.357-47.319-0.722c-14.645-0.334-29.79-0.679-44.887-0.722
					h-602.232v-1.281h602.235c15.111,0.043,30.261,0.388,44.914,0.722c46.618,1.06,90.653,2.065,137.011-5.662
					c280.662-51.643,542.847-28.936,820.43-4.9c37.986,3.289,77.264,6.691,116.13,9.843l602.184-0.003v1.281h-602.235
					c-38.923-3.153-78.203-6.555-116.191-9.845c-277.493-24.029-539.595-46.727-820.097,4.886
					C653.048,257.351,623.533,258.663,593.646,258.663z"/>
			</g>
			<g>
				<path style="fill:#ABABAB;" d="M1607.921,197.675c-95.399,0-191.964-3.197-285.478-6.293
					c-180.192-5.965-366.518-12.132-549.924,4.464c-45.401,1.582-90.844,1.695-134.793,1.802l-3.535,0.009h-734.982v-1.281
					l738.513-0.009c43.939-0.107,89.372-0.22,134.716-1.8c183.449-16.598,369.815-10.431,550.047-4.464
					c97.41,3.222,198.114,6.536,297.39,6.273h602.236v1.281h-602.235C1615.896,197.668,1611.907,197.675,1607.921,197.675z"/>
			</g>
			<g>
				<path style="fill:#ABABAB;" d="M2222.112,138.096h-873.777c-142.302-1.117-287.821-1.12-432.515-0.007l-1016.611,0.007v-1.281
					l1016.606-0.008c144.697-1.113,290.22-1.111,432.525,0.008h873.772V138.096z"/>
			</g>
			<g>
				<rect x="-100.791" y="77.253" style="fill:#ABABAB;" width="2322.903" height="1.282"/>
			</g>
			<g>
				<rect x="-100.791" y="17.691" style="fill:#ABABAB;" width="2322.903" height="1.281"/>
			</g>
			<g>
				<rect x="-100.791" y="-41.87" style="fill:#ABABAB;" width="2322.903" height="1.281"/>
			</g>
			<g>
				<rect x="2168.678" y="-100.791" style="fill:#ABABAB;" width="1.281" height="2322.903"/>
			</g>
			<g>
				<rect x="2115.884" y="-100.791" style="fill:#ABABAB;" width="1.281" height="2322.903"/>
			</g>
			<g>
				<rect x="2063.091" y="-100.791" style="fill:#ABABAB;" width="1.281" height="2322.903"/>
			</g>
			<g>
				<path style="fill:#ABABAB;" d="M2011.579,2222.112h-1.281v-873.778c0.059-31.416,1.107-63.615,2.121-94.754
					c0.507-15.593,1.031-31.715,1.432-47.689c2.873-109.46,0.616-220.803-1.566-328.481c-0.697-34.322-1.417-69.814-1.948-104.42
					c-0.01-47.059-0.021-93.435-0.039-138.801v-734.981h1.281v734.981c0.019,45.366,0.029,91.743,0.039,138.791
					c0.532,34.594,1.251,70.083,1.946,104.405c2.183,107.692,4.442,219.051,1.568,328.538c-0.402,15.979-0.926,32.104-1.434,47.699
					c-1.013,31.128-2.06,63.317-2.119,94.712V2222.112z"/>
			</g>
			<g>
				<path style="fill:#ABABAB;" d="M1958.786,2222.112h-1.281v-602.235c0.4-20.314,0.391-40.608,0.382-60.235
					c-0.019-39.625-0.039-80.599,3.398-121.848c1.746-27.929,3.67-56.238,5.532-83.615c9.016-132.568,18.338-269.651,9.839-405.638
					c-14.118-163.764-20.382-310.018-19.152-447.103v-602.229h1.281v602.235c-1.231,137.05,5.033,283.264,19.148,447.002
					c8.505,136.085-0.82,273.211-9.838,405.82c-1.861,27.375-3.787,55.682-5.533,83.621c-3.434,41.209-3.414,82.156-3.395,121.755
					c0.01,19.633,0.018,39.934-0.382,60.248V2222.112z"/>
			</g>
			<g>
				<path style="fill:#ABABAB;" d="M1905.993,2222.112h-1.281v-602.235l3.124-29.843c33.09-315.408,64.345-613.323,4.78-933.486
					c-10.668-53.343-10.104-106.085-7.903-155.133v-602.206h1.281v602.235c-2.198,48.995-2.764,101.644,7.88,154.862
					c26.762,143.847,37.283,297.853,32.165,470.824c-4.575,154.66-21.022,311.43-36.928,463.037l-3.121,29.777L1905.993,2222.112z"
					/>
			</g>
			<g>
				<path style="fill:#ABABAB;" d="M1853.199,2222.112h-1.281v-602.235c0-29.815,6.376-56.246,13.126-84.227
					c2.952-12.237,6.005-24.891,8.526-37.989c65.043-278.6,62.625-571.68-7.182-871.122l-0.487-2.786
					c-7.192-41.232-13.984-80.177-13.984-122.31v-602.235h1.281v602.235c0,42.022,6.784,80.914,13.966,122.09l0.479,2.751
					c33.897,145.397,52.013,291.816,53.837,435.151c1.895,148.91-13.802,295.767-46.656,436.493
					c-2.523,13.103-5.579,25.771-8.534,38.022c-6.733,27.906-13.092,54.263-13.092,83.926V2222.112z"/>
			</g>
			<g>
				<path style="fill:#ABABAB;" d="M1800.406,2222.112h-1.281v-362.954c0-74.205,1.011-153.109,13.093-230.263
					c106.993-391.087,112.138-721.968,15.741-1011.623c-3.48-14.075-7.978-27.087-12.326-39.672
					c-8.489-24.565-16.508-47.769-16.508-76.156v-602.235h1.281v602.235c0,28.172,7.984,51.277,16.438,75.738
					c4.357,12.611,8.863,25.651,12.345,39.734c96.463,289.856,91.326,620.98-15.72,1012.248
					c-12.053,76.994-13.063,155.842-13.063,229.995V2222.112z"/>
			</g>
			<g>
				<path style="fill:#ABABAB;" d="M1747.613,2222.112h-1.281v-362.954c-0.252-65.798-0.512-133.84,22.843-193.523
					c135.749-389.316,133.25-796.257-7.232-1176.806c-14.407-76.622-15.611-157.171-15.611-226.665v-362.954h1.281v362.954
					c0,69.435,1.202,149.914,15.56,226.325c140.558,380.728,143.059,787.968,7.204,1177.591
					c-23.275,59.479-23.016,127.396-22.764,193.076V2222.112z"/>
			</g>
			<g>
				<path style="fill:#ABABAB;" d="M1694.82,2222.112h-1.281v-172.067c0-54.879,0.041-119.386,0.539-190.531
					c0.731-36.263,3.225-78.211,16.164-114.439c173.444-448.754,176.105-891.553,7.701-1280.543
					c-19.879-47.711-21.317-102.438-22.708-155.365c-0.406-15.442-0.825-31.409-1.696-46.967l-0.001-362.991h1.281v362.954
					c0.871,15.542,1.29,31.519,1.696,46.971c1.387,52.808,2.821,107.414,22.607,154.898
					c87.557,202.249,129.598,418.159,124.947,641.727c-4.327,208.015-48.95,423.262-132.628,639.763
					c-12.872,36.041-15.354,77.859-16.084,114.011c-0.498,71.132-0.539,135.637-0.539,190.513V2222.112z"/>
			</g>
			<g>
				<path style="fill:#ABABAB;" d="M1642.026,2222.112h-1.281v-362.954c1.292-62.327,20.128-110.838,41.937-167.008
					c3.223-8.299,6.509-16.763,9.813-25.464c184.425-358.589,175.255-802.784-25.787-1250.823
					c-20.71-49.185-23.214-104.924-25.423-154.102c-0.498-70.06-0.539-132.515-0.539-190.484v-172.067h1.281V71.276
					c0,57.966,0.041,120.42,0.539,190.451c2.203,49.047,4.702,104.665,25.316,153.623
					c94.95,211.605,147.774,422.376,156.997,626.445c10.207,225.859-33.94,436.278-131.215,625.411
					c-3.275,8.638-6.563,17.105-9.787,25.406c-21.766,56.058-40.563,104.471-41.85,166.559V2222.112z"/>
			</g>
			<g>
				<path style="fill:#ABABAB;" d="M1589.233,2222.112h-1.281v-362.954c1.417-51.569,19.12-86.614,39.617-127.192
					c7.693-15.23,15.649-30.979,23.28-48.664c203.064-370.378,197.521-843.377-14.438-1234.464l-1.922-4.764
					c-24.248-60.246-45.189-112.277-46.538-181.899v-362.967h1.281v362.954c1.345,69.374,22.245,121.303,46.445,181.433l1.891,4.698
					c103.159,190.33,159.846,403.712,163.901,617.009c2.047,107.667-9.296,214.368-33.714,317.139
					c-25.119,105.73-64.067,207.142-115.757,301.422c-7.62,17.667-15.584,33.433-23.286,48.68
					c-20.429,40.441-38.07,75.366-39.48,126.632V2222.112z"/>
			</g>
			<g>
				<path style="fill:#ABABAB;" d="M1536.44,2222.112h-1.281v-172.067c0-60.888,0.813-120.067,10.633-174.707
					c2.098-8.459,3.842-17.027,5.53-25.314c5.044-24.772,9.807-48.172,23.196-69.21
					c258.839-436.629,265.213-940.691,17.039-1348.348c-5.588-12.431-11.174-23.916-16.575-35.023
					c-20.642-42.442-38.468-79.096-39.823-135.265v-362.97h1.281v362.954c1.347,55.875,19.118,92.413,39.694,134.721
					c5.406,11.115,10.996,22.61,16.555,34.987c61.998,101.829,108.889,211.307,139.338,325.324
					c29.777,111.503,43.839,227.316,41.798,344.223c-4.07,233.026-72.611,468.19-198.215,680.067
					c-13.271,20.857-18.012,44.143-23.033,68.794c-1.688,8.299-3.436,16.882-5.532,25.326
					c-9.793,54.496-10.604,113.611-10.604,174.439V2222.112z"/>
			</g>
			<g>
				<path style="fill:#ABABAB;" d="M1483.647,2222.112h-1.282v-172.067c-0.012-4.938-0.038-9.891-0.063-14.854
					c-0.326-64.317-0.664-130.825,25.554-192.793c24.182-59.421,51.576-118.436,78.069-175.507
					c71.38-153.771,145.191-312.778,160.151-490.424c18.045-239.105-48.036-488.081-202.019-761.151
					c-7.914-16.295-16.132-29.932-24.08-43.119c-19.431-32.238-36.213-60.08-37.611-110.017v-362.972h1.282v362.954
					c1.389,49.582,18.089,77.29,37.427,109.374c7.963,13.21,16.196,26.872,24.118,43.186
					c70.854,125.649,123.905,248.705,157.659,365.713c39.13,135.641,54.102,268.92,44.502,396.134
					c-14.98,177.879-88.839,336.99-160.266,490.861c-26.486,57.057-53.875,116.057-78.049,175.458
					c-26.118,61.734-25.781,128.108-25.455,192.296c0.025,4.964,0.052,9.918,0.064,14.859V2222.112z"/>
			</g>
			<g>
				<path style="fill:#ABABAB;" d="M1430.854,2222.112h-1.282v-172.067c-0.997-68.575,3.215-157.657,44.997-238.436
					c108.294-206.513,220.273-420.054,235.636-660.749c23.554-300.968-116.867-571.01-240.759-809.263
					c-18.568-31.829-26.128-69.702-30.638-99.135c-8.53-51.534-9.237-110.381-9.237-171.185v-172.067h1.282V71.276
					c0,60.749,0.705,119.539,9.22,170.983c4.493,29.331,12.019,67.049,30.494,98.719
					c71.491,137.481,134.299,261.738,179.074,390.501c52,149.544,72.228,286.755,61.841,419.471
					c-6.899,108.095-33.835,220.038-82.347,342.217c-43.247,108.917-99.26,215.732-153.429,319.033
					c-41.651,80.522-45.849,169.4-44.853,237.835V2222.112z"/>
			</g>
			<g>
				<path style="fill:#ABABAB;" d="M1378.06,2222.112h-1.281v-172.067c-2.135-76.938,2.031-157.545,46.584-225.682
					c320.068-472.102,328.473-995.712,23.066-1436.58c-68.133-96.959-71.768-209.528-69.651-316.519v-172.055h1.281V71.276
					c-2.113,106.791,1.509,219.129,69.421,315.773c77.993,112.585,136.448,231.843,173.746,354.462
					c36.252,119.182,52.828,242.489,49.267,366.495c-3.494,121.668-26.376,244.646-68.009,365.518
					c-41.309,119.93-101.215,238.207-178.056,351.549c-44.352,67.833-48.499,148.207-46.369,224.955V2222.112z"/>
			</g>
			<g>
				<path style="fill:#ABABAB;" d="M1325.267,2222.112h-1.281v-172.067c-6.184-140.613,60.894-261.984,125.762-379.361
					c22.582-40.861,45.934-83.113,65.804-125.503c215.181-453.314,37.98-911.668-148.564-1216.356
					c-44.491-74.153-43.773-162.364-43.079-247.673l0.077-9.88v-172.063h1.281V71.276l-0.078,9.886
					c-0.693,85.131-1.408,173.162,42.894,247c124.148,202.774,202.51,404.02,232.908,598.142
					c34.524,220.474,6.167,428.878-84.28,619.422c-19.888,42.427-43.249,84.698-65.842,125.578
					c-64.782,117.221-131.771,238.433-125.601,378.713V2222.112z"/>
			</g>
			<g>
				<path style="fill:#ABABAB;" d="M1272.474,2222.112h-1.282v-172.067c-1.89-84.658,11.837-155.111,41.966-215.371
					c14.022-29.797,28.485-59.664,42.471-88.548c70.022-144.605,136.16-281.188,170.122-446.757
					c75.237-358.63-56.407-663.346-222.841-996.213c-31.337-60.435-31.454-131.839-31.568-200.892
					c-0.016-10.163-0.034-20.67-0.15-30.981v-172.075h1.282V71.276c0.116,10.31,0.133,20.821,0.15,30.986
					c0.114,68.901,0.231,140.147,31.427,200.313c75.027,150.052,152.183,310.573,198.926,478.26
					c51.013,183.006,58.873,352.704,24.029,518.794c-33.994,165.722-100.167,302.377-170.223,447.054
					c-13.984,28.882-28.446,58.745-42.472,88.55c-30.04,60.081-43.724,130.337-41.836,214.796V2222.112z"/>
			</g>
			<g>
				<path style="fill:#ABABAB;" d="M1219.68,2222.112h-1.281v-172.067c-2.897-97.297,15.696-187.726,53.77-261.495
					c233.757-445.369,229.087-973.698-12.811-1449.521c-42.661-80.3-43.789-168.778-40.959-267.772v-172.049h1.281V71.276
					c-2.825,98.827-1.704,187.129,40.814,267.163c58.272,114.624,103.571,234.052,134.641,354.982
					c31.312,121.869,48.317,245.829,50.54,368.439c2.264,124.896-10.805,249.183-38.847,369.408
					c-28.826,123.585-73.75,243.992-133.523,357.876c-37.972,73.572-56.516,163.784-53.625,260.883V2222.112z"/>
			</g>
			<g>
				<path style="fill:#ABABAB;" d="M1166.887,2222.112h-1.281v-172.067c0.215-9.531,0.346-19.286,0.469-28.719
					c0.723-54.612,1.471-111.083,18.946-163.51c173.818-496.62,172.93-1036.009-2.56-1559.866
					c-17.815-57.399-17.308-117.062-16.817-174.762c0.144-17.044,0.294-34.667-0.038-51.9v-172.079h1.281V71.276
					c0.332,17.238,0.182,34.871,0.038,51.923c-0.489,57.601-0.996,117.163,16.755,174.357
					c86.622,258.575,131.349,521.119,132.934,780.323c1.626,265.977-42.24,528.526-130.379,780.351
					c-17.409,52.229-18.156,108.598-18.878,163.113c-0.124,9.436-0.254,19.194-0.469,28.717V2222.112z"/>
			</g>
			<g>
				<path style="fill:#ABABAB;" d="M1114.094,2222.112h-1.282v-172.067c-2.155-70.142,0.505-138.849,8.13-210.028
					c52.809-484.471,51.229-978.279-5.125-1601.139c-2.859-31.44-2.524-62.717-2.202-92.965c0.259-24.198,0.525-49.218-0.802-74.603
					l-0.001-172.101h1.282V71.276c1.329,25.392,1.061,50.433,0.803,74.651c-0.322,30.215-0.656,61.46,2.196,92.836
					c26.514,293.04,40.551,554.632,42.917,799.723c2.714,281.24-9.649,543.467-37.794,801.668
					c-7.62,71.12-10.276,139.769-8.122,209.871V2222.112z"/>
			</g>
			<g>
				<path style="fill:#ABABAB;" d="M1061.3,2222.112h-1.281v-172.067c2.003-84.826-3.21-166.877-15.933-250.856
					c-39.847-249.043-57.763-495.359-54.771-753.019c2.739-235.8,23.169-481.481,62.456-751.078
					c8.229-59.653,8.191-120.601,8.155-179.54c-0.009-14.495-0.018-29.483,0.094-44.281v-172.063h1.281V71.276
					c-0.111,14.797-0.102,29.783-0.094,44.275c0.036,58.983,0.074,119.975-8.168,179.721
					c-80.741,554.053-83.183,1031.869-7.687,1503.719c12.734,84.059,17.952,166.182,15.948,251.068V2222.112z"/>
			</g>
			<g>
				<path style="fill:#ABABAB;" d="M1008.507,2222.112h-1.281v-172.067l-0.247-12.519c-1.406-72.401-2.86-147.267-29.466-212.572
					c-98.792-240.27-145.14-500.786-137.756-774.311c6.681-247.529,57.335-508.669,150.553-776.167
					c17.674-49.09,17.256-100.325,16.814-154.568c-0.13-15.907-0.264-32.357,0.102-48.647v-172.054h1.281V71.276
					c-0.366,16.286-0.231,32.725-0.102,48.624c0.443,54.36,0.862,105.704-16.886,155.006
					c-197.844,567.725-202.158,1089.076-12.82,1549.563c26.696,65.528,28.153,140.515,29.561,213.032l0.247,12.53V2222.112z"/>
			</g>
			<g>
				<path style="fill:#ABABAB;" d="M955.714,2222.112h-1.281v-172.067c2.728-101.882-17.941-193.964-61.436-273.704
					c-59.007-107.86-104.24-221.868-134.445-338.854c-29.896-115.792-45.135-234.733-45.295-353.518
					c-0.162-119.088,14.837-238.191,44.575-354c30.19-117.567,75.666-232.06,135.166-340.299
					c58.476-105.813,63.549-225.73,61.436-318.379v-172.082h1.281V71.276c2.117,92.796-2.971,212.933-61.595,319.013
					c-237.864,432.71-237.863,950.63,0.002,1385.437c43.606,79.944,64.328,172.242,61.593,274.335V2222.112z"/>
			</g>
			<g>
				<path style="fill:#ABABAB;" d="M902.92,2222.112h-1.281v-172.067c1.836-86.084-10.681-151.888-39.392-207.103
					c-8.616-17.664-17.262-35.258-25.893-52.824c-95.97-195.311-186.616-379.791-212.443-598.15
					c-14.528-133.857,1.152-272.571,47.937-424.078c41.707-135.064,103.73-267.62,163.713-395.811
					c13.004-27.794,26.452-56.534,39.482-84.848c29.734-64.423,28.28-134.637,26.74-208.971l-0.144-6.971v-172.079h1.281V71.276
					l0.143,6.956c1.544,74.487,3.001,144.844-26.856,209.534c-13.031,28.318-26.48,57.06-39.486,84.856
					c-119.897,256.241-243.878,521.206-211.538,819.202c25.802,218.136,116.401,402.519,212.319,597.728
					c8.633,17.567,17.279,35.164,25.888,52.814c28.807,55.397,41.37,121.397,39.53,207.691V2222.112z"/>
			</g>
			<g>
				<path style="fill:#ABABAB;" d="M850.127,2222.112h-1.281v-172.067c0.435-71.002-5.798-162.774-58.303-242.915
					c-75.7-111.323-134.085-228.446-173.53-348.106c-39.251-119.072-59.882-241.054-61.321-362.559
					c-1.449-122.363,16.568-244.671,53.551-363.525c37.666-121.048,95.218-239.143,171.057-351.005
					c65.247-96.564,71.504-206.367,68.547-310.641v-172.085h1.281V71.276c2.962,104.469-3.318,214.511-68.767,311.377
					c-303.927,448.294-300.193,967.237,10.247,1423.766c52.7,80.437,58.957,172.452,58.52,243.63V2222.112z"/>
			</g>
			<g>
				<path style="fill:#ABABAB;" d="M797.334,2222.112h-1.281v-172.067c5.448-108.349-15.023-191.219-64.425-260.83
					c-78.465-113.618-137.19-234.033-174.548-357.907c-36.155-119.884-52.675-244.187-49.106-369.456
					c3.483-122.217,26.094-246.191,67.207-368.476c40.522-120.533,99.189-239.968,174.369-354.987
					c51.057-75.371,48.904-165.867,46.822-253.384c-0.109-4.574-0.217-9.146-0.319-13.715v-172.081h1.281V71.276
					c0.102,4.554,0.211,9.125,0.319,13.699c2.087,87.718,4.245,178.422-47.037,254.123
					c-314.853,481.697-321.393,1009.98-17.938,1449.382c49.572,69.852,70.118,152.977,64.655,261.597L797.334,2222.112z"/>
			</g>
			<g>
				<path style="fill:#ABABAB;" d="M744.542,2222.112h-1.281v-172.067c11.455-150.142-59.275-281.206-127.677-407.954
					c-14.299-26.494-29.083-53.89-42.848-80.976c-95.35-185.87-128.235-391.476-97.741-611.1
					c13.781-99.251,40.716-201.593,80.06-304.182c36.962-96.379,85.156-193.779,143.243-289.492
					c21.176-34.41,33.278-72.386,35.973-112.878c8.304-52.282,8.991-111.279,8.991-172.186v-172.067h1.281V71.276
					c0,60.961-0.688,120.011-8.999,172.329c-2.702,40.645-14.868,78.818-36.151,113.403
					C439.77,784.794,395.195,1212.214,573.877,1560.532c13.758,27.075,28.538,54.463,42.834,80.95
					c68.489,126.911,139.311,258.143,127.829,408.612L744.542,2222.112z"/>
			</g>
			<g>
				<path style="fill:#ABABAB;" d="M691.749,2222.112h-1.281v-172.067c2.768-92.158,1.336-181.047-45.966-255.733
					c-130.754-217.925-202.518-457.882-207.536-693.943c-2.551-119.944,12.072-238.109,43.461-351.213
					c32.377-116.661,82.64-227.994,149.394-330.907c7.512-15.696,15.304-29.213,22.838-42.286
					c19.547-33.909,36.428-63.194,37.81-113.816v-362.937h1.281v362.954c-1.392,50.964-18.348,80.379-37.981,114.439
					c-7.523,13.052-15.302,26.547-22.832,42.271c-263.558,406.329-258.064,920.232,14.657,1374.767
					c47.487,74.979,48.931,164.079,46.156,256.423V2222.112z"/>
			</g>
			<g>
				<path style="fill:#ABABAB;" d="M638.954,2222.112h-1.281v-362.954c-1.523-46.853-19.209-75.036-39.689-107.669
					c-10.154-16.18-20.654-32.911-30.295-53.539c-111.546-187.589-168.086-406.322-163.477-632.496
					c4.489-220.32,66.281-438.225,178.696-630.157c4.798-10.911,9.635-21.299,14.313-31.344
					c20.988-45.071,39.113-83.996,40.452-141.804v-362.94h1.281v362.954c-1.345,58.091-19.523,97.128-40.572,142.33
					c-4.675,10.039-9.509,20.42-14.334,31.384c-234.261,399.976-240.083,883.319-15.228,1261.473
					c9.637,20.612,20.116,37.309,30.25,53.456c20.578,32.791,38.349,61.109,39.884,108.329V2222.112z"/>
			</g>
			<g>
				<path style="fill:#ABABAB;" d="M586.161,2222.112h-1.281v-362.954c-1.379-52.818-19.076-89.899-39.57-132.837
					c-6.937-14.534-14.11-29.563-21.076-46.095c-107.258-194.238-155.292-412.174-142.734-647.69
					c5.759-108.025,24.494-219.425,55.684-331.102c29.806-106.721,71.101-214.192,122.735-319.424
					c19.636-39.27,23.253-87.591,24.266-120.523c0.612-71.605,0.694-136.336,0.694-190.212v-172.067h1.281V71.276
					c0,53.878-0.082,118.611-0.695,190.237c-1.016,33.066-4.652,81.574-24.397,121.067
					c-228.142,464.946-240.814,925.595-35.683,1297.089c6.983,16.564,14.15,31.58,21.081,46.101
					c20.555,43.07,38.307,80.265,39.694,133.372V2222.112z"/>
			</g>
			<g>
				<path style="fill:#ABABAB;" d="M533.368,2222.112h-1.281v-362.954c-1.279-66.06-20.877-118.958-43.568-180.209
					c-1.839-4.964-3.699-9.983-5.571-15.07c-68.045-151.043-110.705-304.216-126.781-455.221
					c-17.4-163.443-3.165-321.717,42.308-470.43c14.952-49.574,33.279-98.327,51.005-145.474
					c41.342-109.974,80.392-213.849,82.105-330.985c0.503-74.633,0.503-141.597,0.503-190.492v-172.067h1.281V71.276
					c0,48.896,0,115.863-0.503,190.506c-1.715,117.364-40.803,221.34-82.187,331.422c-17.717,47.128-36.037,95.86-50.977,145.396
					c-111.008,363.024-15.358,703.28,84.431,924.795c1.889,5.127,3.748,10.146,5.587,15.109
					c22.733,61.36,42.365,114.352,43.648,180.641V2222.112z"/>
			</g>
			<g>
				<path style="fill:#ABABAB;" d="M480.576,2222.112h-1.281v-172.067c0-58.193-0.038-120.843-0.493-190.568
					c1.862-57.262-5.532-109.062-21.383-149.822c-80.612-204.133-122.396-412.025-124.191-617.9
					c-1.856-213.172,39.37-418.942,122.533-611.593c15.825-63.017,23.534-134.358,23.534-217.999v-362.954h1.281v362.954
					c0,83.748-7.721,155.19-23.605,218.409c-162.855,377.279-162.261,813.576,1.64,1228.614
					c15.915,40.925,23.34,92.898,21.473,150.308c0.455,69.702,0.493,132.354,0.493,190.55V2222.112z"/>
			</g>
			<g>
				<path style="fill:#ABABAB;" d="M427.783,2222.112h-1.281v-362.954c0-84.046-7.155-156.884-21.872-222.675
					c-67.606-180.754-100.185-373.824-96.802-573.765c3.208-189.656,38.56-382.273,105.077-572.502
					c12.544-74.17,13.597-153.334,13.597-228.053v-362.954h1.281v362.954c0,74.773-1.053,154-13.642,228.37
					c-138.057,394.859-140.913,790.96-8.286,1145.585c14.763,65.969,21.928,138.897,21.928,223.039V2222.112z"/>
			</g>
			<g>
				<path style="fill:#ABABAB;" d="M374.988,2222.112h-1.281v-362.954c0-67.102,0-150.612-11.066-231.627
					c-47.006-178.216-73.499-348.025-78.726-504.634c-5.993-179.526,15.607-349.043,64.202-503.842
					c3.025-12.986,6.728-25.339,10.308-37.284c7.859-26.222,15.282-50.988,15.282-80.327v-602.235h1.281v602.235
					c0,29.527-7.45,54.38-15.336,80.695c-3.575,11.927-7.271,24.26-10.299,37.254c-91.888,292.711-87.127,622.379,14.542,1007.889
					c11.093,81.178,11.093,164.737,11.093,231.877V2222.112z"/>
			</g>
			<g>
				<path style="fill:#ABABAB;" d="M322.195,2222.112h-1.281v-602.235c0-31.717-5.875-60.535-12.096-91.046
					c-2.158-10.586-4.389-21.531-6.374-32.672c-35.93-132.904-50.113-279.684-43.346-448.675
					c6.026-150.511,27.703-303.838,48.667-452.116c4.358-30.828,8.865-62.706,13.154-94.012l-0.006-602.147h1.281v602.235
					c-4.295,31.396-8.802,63.275-13.16,94.103c-41.992,297.007-85.413,604.125-5.342,900.333
					c1.995,11.181,4.224,22.118,6.381,32.696c6.233,30.577,12.121,59.456,12.121,91.302V2222.112z"/>
			</g>
			<g>
				<path style="fill:#ABABAB;" d="M269.402,2222.112h-1.281v-602.235c-0.192-84.563-10.387-170.512-20.248-253.63
					c-7.475-63.011-15.204-128.166-18.518-192.254c-6.226-145.243,9.685-289.834,25.071-429.667
					c3.631-32.992,7.385-67.106,10.8-100.772c2.308-41.571,5.184-93.343,2.896-142.081l-0.001-602.265h1.281v602.235
					c2.292,48.773-0.587,100.582-2.9,142.211c-3.418,33.7-7.172,67.817-10.803,100.811
					c-15.381,139.784-31.286,284.328-25.065,429.466c3.312,64.04,11.039,129.174,18.511,192.164
					c9.864,83.156,20.065,169.141,20.256,253.781V2222.112z"/>
			</g>
			<g>
				<path style="fill:#ABABAB;" d="M216.61,2222.112h-1.281v-602.235c-0.446-93.194-4.166-188.266-7.763-280.207
					c-7.297-186.44-14.84-379.227,4.378-567.757c2.73-50.359,3.243-100.058,3.385-137.726v-734.978h1.281v734.981
					c-0.141,37.685-0.655,87.404-3.389,137.824c-19.212,188.469-11.669,381.21-4.375,567.606
					c3.598,91.953,7.319,187.035,7.764,280.255V2222.112z"/>
			</g>
			<g>
				<path style="fill:#ABABAB;" d="M163.817,2222.112h-1.282v-734.981c-0.015-45.367-0.021-91.744-0.027-138.792
					c-3.192-125.526-2.101-252.901-1.046-376.083c0.56-65.379,1.139-132.984,1.065-199.269l0.008-873.778h1.282l-0.009,873.777
					c0.075,66.291-0.505,133.898-1.065,199.281c-1.054,123.171-2.145,250.537,1.046,376.056
					c0.007,47.065,0.012,93.441,0.028,138.809V2222.112z"/>
			</g>
			<g>
				<rect x="109.742" y="-100.791" style="fill:#ABABAB;" width="1.281" height="2322.903"/>
			</g>
			<g>
				<rect x="56.948" y="-100.791" style="fill:#ABABAB;" width="1.282" height="2322.903"/>
			</g>
			<g>
				<rect x="4.155" y="-100.791" style="fill:#ABABAB;" width="1.282" height="2322.903"/>
			</g>
			<g>
				<rect x="-48.638" y="-100.791" style="fill:#ABABAB;" width="1.281" height="2322.903"/>
			</g>
		</g>
	</g>
</g>
</svg>
