<?xml version="1.0" encoding="utf-8"?>
<!-- Generator: Adobe Illustrator 26.0.3, SVG Export Plug-In . SVG Version: 6.00 Build 0)  -->
<svg version="1.0" id="katman_1" xmlns="http://www.w3.org/2000/svg" xmlns:xlink="http://www.w3.org/1999/xlink" x="0px" y="0px"
	 viewBox="0 0 600 450" style="enable-background:new 0 0 600 450;" xml:space="preserve">
<style type="text/css">
	.st0{fill:#009FE3;}
</style>
<g transform="translate(-1207 -1142.094)">
	<g transform="translate(998.728 1130.236)">
		<path class="st0" d="M520.2,238.3l8.9-10.7c5.6,5.2,12.9,8.1,20.5,8.4c6.2,0,9.9-2.5,9.9-6.5v-0.2c0-3.8-2.3-5.8-13.8-8.7
			c-13.9-3.5-22.8-7.4-22.8-21v-0.2c0-12.5,10-20.7,24.1-20.7c9.3-0.2,18.3,2.9,25.5,8.7l-7.9,11.4c-5.1-4-11.4-6.4-17.9-6.8
			c-5.8,0-8.8,2.7-8.8,6v0.2c0,4.5,2.9,6,14.8,9c13.9,3.6,21.8,8.6,21.8,20.6v0.2c0,13.7-10.4,21.3-25.2,21.3
			C538.7,249.3,528.3,245.4,520.2,238.3z"/>
		<path class="st0" d="M582.1,238.3l8.9-10.7c5.6,5.2,12.9,8.1,20.5,8.4c6.2,0,9.9-2.5,9.9-6.5v-0.2c0-3.8-2.3-5.8-13.8-8.7
			c-13.9-3.5-22.8-7.4-22.8-21v-0.2c0-12.5,10-20.7,24.1-20.7c9.3-0.2,18.3,2.9,25.5,8.7l-7.9,11.4c-5.1-4-11.4-6.4-17.9-6.8
			c-5.8,0-8.8,2.7-8.8,6v0.2c0,4.5,2.9,6,14.8,9c13.9,3.6,21.8,8.6,21.8,20.6v0.2c0,13.7-10.4,21.3-25.2,21.3
			C600.5,249.3,590.2,245.4,582.1,238.3z"/>
		<path class="st0" d="M649.7,179.5h15.1v55h34.3v13.8h-49.4V179.5z"/>
		<path class="st0" d="M518.4,283.1l3.4-4.1c2.2,2,5,3.1,7.9,3.2c2.4,0,3.8-0.9,3.8-2.5v-0.1c0-1.5-0.9-2.2-5.3-3.4
			c-5.3-1.4-8.8-2.8-8.8-8.1v-0.1c0.1-4.6,3.9-8.2,8.5-8c0.2,0,0.5,0,0.7,0.1c3.6-0.1,7,1.1,9.8,3.4l-3,4.4c-2-1.5-4.4-2.5-6.9-2.6
			c-2.2,0-3.4,1-3.4,2.3v0.1c0,1.7,1.1,2.3,5.7,3.5c5.4,1.4,8.4,3.3,8.4,7.9v0.1c0,5.3-4,8.2-9.7,8.2
			C525.5,287.3,521.5,285.8,518.4,283.1z"/>
		<path class="st0" d="M544.4,260.5h19.9v5.2h-14.2v5.4h12.5v5.2h-12.5v5.6h14.4v5.2h-20.1V260.5z"/>
		<path class="st0" d="M568.6,273.8L568.6,273.8c-0.1-7.5,5.8-13.6,13.2-13.8c0.2,0,0.4,0,0.6,0c3.9-0.2,7.7,1.3,10.4,4.1l-3.7,4.3
			c-1.8-1.8-4.2-2.9-6.8-3c-4.3,0.1-7.8,3.7-7.7,8c0,0.1,0,0.2,0,0.2v0.1c-0.3,4.3,3.1,8,7.4,8.3c0.1,0,0.2,0,0.3,0
			c2.6,0,5.2-1.1,7-3.1l3.7,3.7c-2.7,3.2-6.7,4.9-10.8,4.7c-7.4,0.1-13.4-5.8-13.6-13.1C568.6,274.1,568.6,274,568.6,273.8z"/>
		<path class="st0" d="M597.2,275.6v-15.1h5.8v14.9c0,4.3,2.2,6.5,5.7,6.5c3.5,0,5.7-2.2,5.7-6.3v-15.1h5.8v14.9
			c0.7,5.8-3.4,11.2-9.2,11.9c-0.8,0.1-1.6,0.1-2.4,0c-5.8,0.6-10.9-3.6-11.5-9.4C597.1,277.2,597.1,276.4,597.2,275.6z"/>
		<path class="st0" d="M626.2,260.5h12.1c2.8-0.2,5.6,0.8,7.7,2.7c1.5,1.6,2.4,3.8,2.3,6v0.1c0.2,3.7-2.1,7.1-5.7,8.2l6.5,9.4h-6.8
			l-5.7-8.5H632v8.5h-5.8V260.5z M637.9,273.4c2.8,0,4.5-1.5,4.5-3.7v-0.1c0-2.5-1.7-3.8-4.6-3.8H632v7.6H637.9z"/>
		<path class="st0" d="M653.6,260.5h19.9v5.2h-14.2v5.4h12.5v5.2h-12.5v5.6h14.4v5.2h-20.1V260.5z"/>
		<path class="st0" d="M678.9,260.5h10.3c7.3-0.5,13.5,5,14,12.3c0,0.3,0,0.6,0,0.9v0.1c0,7.3-5.9,13.2-13.2,13.3
			c-0.3,0-0.6,0-0.8,0h-10.3V260.5z M689.2,281.7c4.2,0.2,7.7-2.9,8-7.1c0-0.3,0-0.5,0-0.8v-0.1c0.2-4.2-3-7.8-7.2-8
			c-0.3,0-0.5,0-0.8,0h-4.5v15.9L689.2,281.7z"/>
		<path class="st0" d="M313.5,239.8c0,60.5,59,91.2,84.3,101.6l0.9,0.4c1.9,0.9,4.1,0.9,5.9,0l0.9-0.4
			c25.4-10.4,84.3-41.1,84.3-101.6v-81c0-3.1-2.1-5.8-5.1-6.5l-81.5-20.2c-1.1-0.3-2.2-0.3-3.2,0l-81.5,20.2c-3,0.7-5.1,3.4-5.1,6.5
			 M476.5,239.8c0,51.5-51.3,78.9-74.7,88.7c-23.5-9.8-74.7-37.2-74.7-88.7v-75.8l74.7-18.5l74.7,18.5V239.8z"/>
		<path class="st0" d="M401.5,172.5c-15,0-27.2,12.2-27.2,27.2v6.7c-5.3,0.9-9.1,5.4-9.1,10.7v47.6c0,6,4.9,10.9,10.9,10.9h51.5
			c6,0,10.9-4.9,10.9-10.9v-47.6c0-5.5-4.2-10.1-9.6-10.8v-6.7C428.6,184.6,416.5,172.5,401.5,172.5z M401.5,184.3
			c8.5,0,15.4,6.9,15.4,15.4v6.5h-30.7v-6.5C386.1,191.2,393,184.3,401.5,184.3z M426.5,263.7h-49.5v-45.6h49.5L426.5,263.7z
			 M411.1,226.1l8.2,8.2l-12.4,12.4l-8.2,8.2l-8.2-8.2l-6.3-6.3l8.2-8.2l6.3,6.3L411.1,226.1z"/>
	</g>
</g>
</svg>
