<svg width="1392" height="844" viewBox="0 0 1392 844" fill="none" xmlns="http://www.w3.org/2000/svg">
<path d="M248.303 150.943C247.906 141.255 240.756 135.24 238.705 144.06C235.945 155.929 243.544 164.555 245.64 164.587C247.735 164.62 261.794 154.227 259.693 148.442C256.703 141.421 248.485 153.992 248.485 153.992C248.485 153.992 248.472 153.182 248.303 150.943Z" stroke="#082F4D" stroke-width="3.23559" stroke-linejoin="round"/>
<path d="M499.891 365.833C493.325 362.729 486.717 368.629 491.808 374.191C498.659 381.677 507.163 376.225 507.953 373.864C508.744 371.502 507.015 351.744 502.414 352.003C496.665 352.817 501.976 366.749 501.976 366.749C501.976 366.749 501.436 366.464 499.891 365.833Z" stroke="#EF4923" stroke-width="3.8827" stroke-linejoin="round"/>
<path d="M1224.89 569.833C1218.32 566.729 1211.72 572.629 1216.81 578.191C1223.66 585.677 1232.16 580.225 1232.95 577.864C1233.74 575.502 1232.02 555.744 1227.41 556.003C1221.66 556.817 1226.98 570.749 1226.98 570.749C1226.98 570.749 1226.44 570.464 1224.89 569.833Z" stroke="#FECC2F" stroke-width="3.8827" stroke-linejoin="round"/>
<g opacity="0.2">
<path d="M718.105 652.517C689.058 635.629 662.68 613.911 631.831 600.602C600.981 587.293 562.98 583.723 535.387 602.885C511.359 619.564 500.286 650.051 499.33 679.32C496.594 759.406 569.51 833.975 649.62 833.144C680.743 832.821 712.242 822.791 742.476 830.015C780.915 839.179 809.598 874.453 848.488 881.415C886.579 888.247 924.104 865.873 951.463 838.491C973.833 816.112 992.596 788.944 999.124 757.995C1003.61 736.763 1001.31 712.472 986.388 696.724C966.046 675.256 931.448 677.478 902.843 684.917C834.365 702.755 780.08 688.543 718.105 652.517Z" stroke="#7BD3FB" stroke-width="3" stroke-miterlimit="10"/>
<path d="M973.547 841.625C996.788 818.472 1015.86 789.988 1022.24 757.857C1026.62 735.829 1023.99 710.893 1008.84 694.257C987.596 670.903 951.788 670.59 921.329 676.218C902.266 679.828 882.901 681.605 863.499 681.525C854.258 681.455 845.157 680.938 836.197 679.975C797.525 675.921 762.103 660.636 723.667 637.849C710.627 630.127 697.716 621.675 684.778 613.794C666.98 602.872 646.678 592.368 628.925 588.58C626.109 587.974 623.412 587.445 620.696 586.987C616.78 586.352 612.834 585.894 608.592 585.484C596.121 584.207 583.594 583.563 571.058 583.555C549.284 583.821 527.349 589.37 511.098 603.52C487.839 623.738 478.73 655.841 480.36 686.296C481.533 706.986 487.069 727.194 496.605 745.592C506.417 764.644 520.218 781.649 536.236 796.949C566.75 826.074 605.795 847.137 647.542 848.884C679.83 850.269 713.027 841.811 745.026 849.361C785.812 858.945 817.231 893.459 857.67 896.163C873.387 897.24 888.452 892.839 903.574 886.767C928.841 876.599 953.83 861.176 973.547 841.625Z" stroke="#7BD3FB" stroke-width="3" stroke-miterlimit="10"/>
<path d="M995.645 844.74C1019.82 820.851 1039.15 791.026 1045.36 757.72C1049.62 734.88 1046.7 709.292 1031.31 691.767C1009.16 666.53 972.124 663.686 939.811 667.504C919.411 669.96 898.86 670.948 878.317 670.461C868.433 670.215 858.704 669.61 849.128 668.646C807.137 664.645 769.918 647.656 729.134 623.218C714.131 614.189 698.899 604.44 683.735 595.686C663.14 583.863 637.643 572.734 618.154 572.903C615.085 572.934 612.261 573.065 609.446 573.313C605.414 573.695 601.405 574.26 596.871 574.77C584.795 576.166 569.434 576.463 554.393 577.355C529.468 578.97 503.987 586.245 486.718 604.126C464.085 627.554 457.071 661.551 461.282 693.246C464.243 714.76 471.597 735.435 482.887 753.985C494.546 773.277 510.322 789.947 527.775 805.936C561.033 836.419 601.399 860.59 645.516 864.546C679.042 867.587 713.965 860.747 747.861 868.611C790.995 878.614 825.383 912.11 867.153 910.878C884.345 910.364 900.118 903.224 916.701 895.495C944.251 882.53 973.314 866.837 995.645 844.74Z" stroke="#7BD3FB" stroke-width="3" stroke-miterlimit="10"/>
<path d="M1017.76 847.867C1042.81 823.184 1062.41 792.002 1068.49 757.563C1072.64 733.926 1069.38 707.678 1053.79 689.276C1030.69 662.148 992.514 656.719 958.29 658.772C936.589 660.078 914.836 660.282 893.114 659.385C882.631 658.952 872.286 658.267 862.078 657.329C816.784 653.378 777.73 634.659 734.77 608.499C717.782 598.149 700.263 587.097 682.837 577.545C659.504 564.773 628.693 553.028 607.539 557.242C604.442 557.859 601.386 558.663 598.386 559.648C594.214 561.018 590.141 562.605 585.316 564.035C572.503 567.885 554.964 569.451 537.9 571.236C509.835 574.18 480.734 583.079 462.528 604.825C440.367 631.225 435.559 667.314 442.395 700.289C447.111 722.611 456.253 743.761 469.278 762.49C482.814 781.998 500.538 798.287 519.443 815.048C555.442 846.871 597.142 874.13 643.615 880.316C678.189 884.919 714.847 879.745 750.572 887.922C796.055 898.344 833.491 930.565 876.505 925.622C895.213 923.472 911.621 913.645 929.582 904.277C959.673 888.441 992.744 872.406 1017.76 847.867Z" stroke="#7BD3FB" stroke-width="3" stroke-miterlimit="10"/>
<path d="M1039.86 850.982C1065.82 825.534 1085.71 793.073 1091.62 757.459C1095.67 733.006 1092.17 706.059 1076.25 686.807C1052.33 657.757 1012.91 649.955 976.778 650.091C953.403 650.148 930.4 649.645 907.922 648.357C896.814 647.722 885.824 646.958 874.954 646.064C826.259 642.183 785.512 621.686 740.277 593.895C721.305 582.225 701.506 569.832 681.807 559.502C655.653 545.801 619.64 533.398 596.791 541.68C593.48 542.891 590.271 544.363 587.193 546.082C582.885 548.456 578.748 551.066 573.648 553.411C559.997 559.72 540.353 562.505 521.276 565.147C490.052 569.407 457.325 579.828 438.188 605.541C416.404 634.797 413.884 673.113 423.374 707.346C429.83 730.472 440.758 752.106 455.539 771.025C470.917 790.756 490.632 806.774 510.981 824.19C549.7 857.341 592.727 887.656 641.557 896.07C677.266 902.251 715.616 898.769 753.191 907.202C801.018 918.027 841.545 948.777 885.781 940.332C906.02 936.458 923.074 924.078 942.456 913.028C975.146 894.427 1012.2 878.09 1039.86 850.982Z" stroke="#7BD3FB" stroke-width="3" stroke-miterlimit="10"/>
<path d="M1061.95 854.097C1088.82 827.868 1108.99 794.098 1114.74 757.27C1118.67 732.024 1114.84 704.416 1098.72 684.284C1073.91 653.312 1033.3 643.041 995.237 641.348C970.784 640.243 946.474 638.935 922.7 637.269C910.97 636.452 899.392 635.602 887.967 634.718C835.98 630.866 793.345 608.634 745.808 579.166C724.855 566.191 702.761 552.461 680.804 541.35C651.925 526.681 610.624 513.623 586.084 525.988C582.533 527.805 579.159 529.949 576.008 532.394C571.536 536.082 566.854 539.506 561.984 542.649C547.564 551.42 525.769 555.519 504.659 558.937C470.293 564.509 433.833 576.356 413.889 606.128C392.397 638.243 392.27 678.796 404.346 714.216C412.558 738.137 425.272 760.265 441.8 779.405C459.051 799.336 480.728 815.039 502.512 833.145C543.971 867.636 588.318 900.974 639.533 911.749C676.375 919.489 716.533 917.692 755.886 926.517C806.139 937.727 849.776 966.864 895.198 955.062C916.974 949.412 934.662 934.498 955.455 921.801C990.49 900.373 1031.64 883.725 1061.95 854.097Z" stroke="#7BD3FB" stroke-width="3" stroke-miterlimit="10"/>
<path d="M1084.08 857.275C1111.81 830.254 1132.29 795.185 1137.88 757.162C1141.71 731.12 1137.57 702.844 1121.18 681.851C1095.51 648.949 1053.68 636.248 1013.73 632.666C988.191 630.382 962.596 628.283 937.508 626.242C925.16 625.255 912.936 624.291 900.888 623.426C845.586 619.643 801.242 595.636 751.425 564.52C728.517 550.201 704.132 535.151 679.897 523.246C648.181 507.651 601.642 493.926 575.46 510.364C571.672 512.794 568.146 515.61 564.938 518.766C560.405 523.492 555.556 527.903 550.423 531.967C535.229 543.183 511.289 548.545 488.158 552.786C450.636 559.691 410.383 572.995 389.675 606.799C368.347 641.578 370.694 684.506 385.446 721.28C395.394 745.979 409.896 768.588 428.195 787.927C447.25 808.057 470.951 823.413 494.124 842.236C538.32 878.052 583.999 914.393 637.557 927.485C675.497 936.794 717.451 936.701 758.618 945.841C811.153 957.485 857.809 984.824 904.498 969.802C927.795 962.31 946.084 944.87 968.333 930.568C1005.95 906.209 1051.08 889.344 1084.08 857.275Z" stroke="#7BD3FB" stroke-width="3" stroke-miterlimit="10"/>
<path d="M1106.17 860.34C1134.8 832.522 1155.57 796.157 1160.99 756.976C1164.72 730.117 1160.29 701.153 1143.66 679.307C1117.14 644.476 1074.07 629.349 1032.28 623.884C1005.66 620.422 978.765 617.534 952.381 615.114C939.41 613.94 926.553 612.895 913.91 612.042C855.272 608.315 809.146 582.516 757.055 549.768C732.163 534.129 705.538 517.763 678.99 505.056C644.568 488.505 592.753 474.104 564.851 494.65C560.814 497.704 557.124 501.193 553.851 505.055C549.18 510.416 544.853 516.093 538.875 521.179C522.895 534.86 496.808 541.484 471.641 546.553C430.976 554.77 386.845 569.464 365.458 607.367C344.301 644.843 349.149 690.19 366.629 728.171C378.314 753.639 394.591 776.734 414.644 796.299C435.503 816.712 461.054 831.778 485.746 851.289C532.682 888.446 579.687 927.758 635.61 943.197C674.753 953.999 718.366 955.606 761.376 965.124C816.243 977.191 865.967 1002.65 913.896 984.518C938.705 975.135 957.633 955.263 981.326 939.308C1021.39 912.202 1070.52 894.961 1106.17 860.34Z" stroke="#7BD3FB" stroke-width="3" stroke-miterlimit="10"/>
<path d="M1128.27 863.454C1157.8 834.855 1178.85 797.198 1184.12 756.818C1187.72 729.167 1183.03 699.512 1166.12 676.82C1138.74 640.043 1094.45 622.503 1050.73 615.245C1023.01 610.607 994.83 606.928 967.132 604.133C953.539 602.772 940.093 601.664 926.794 600.808C864.819 597.053 816.949 569.555 762.552 535.113C735.688 518.134 706.723 500.459 677.946 486.947C640.684 469.454 583.598 454.393 554.091 479.022C549.808 482.698 545.967 486.86 542.645 491.423C537.838 497.788 533.447 504.488 527.177 510.493C510.424 526.618 482.222 534.412 454.998 540.451C411.199 549.944 363.124 565.957 341.116 608.066C320.074 648.217 327.452 695.959 347.503 735.216C360.928 761.449 378.985 785.036 400.804 804.838C423.63 825.413 451.209 840.148 477.326 860.387C526.985 898.802 575.327 941.065 633.61 958.903C673.924 971.207 719.273 974.634 764.064 984.405C821.296 996.888 873.993 1020.43 923.242 999.229C949.545 987.959 969.1 965.675 994.24 948.083C1036.8 918.047 1089.96 900.579 1128.27 863.454Z" stroke="#7BD3FB" stroke-width="3" stroke-miterlimit="10"/>
<path d="M1150.4 866.494C1180.8 837.104 1202.15 798.131 1207.25 756.577C1210.76 728.126 1205.77 697.783 1188.61 674.242C1160.37 635.518 1114.83 615.573 1069.21 606.378C1040.4 600.565 1010.93 596.094 981.946 592.9C967.718 591.349 953.65 590.157 939.741 589.322C874.447 585.705 824.802 556.362 768.124 520.341C739.289 502.022 708.019 483.046 676.988 468.769C637.013 450.288 574.656 434.567 543.416 463.324C538.894 467.633 534.902 472.466 531.524 477.721C526.578 485.074 522.127 492.812 515.562 499.721C498.04 518.307 467.641 527.443 438.439 534.194C391.481 545.002 339.455 562.457 316.841 608.614C295.844 651.506 305.79 701.739 328.428 742.183C343.577 769.18 363.422 793.256 387.027 813.279C411.704 834.11 441.255 848.493 468.822 869.418C521.22 909.243 570.916 954.453 631.536 974.661C672.967 988.461 720.074 993.651 766.678 1003.74C826.258 1016.64 881.945 1038.18 932.512 1013.99C960.314 1000.7 980.566 976.088 1007.1 956.853C1052.22 923.976 1109.39 906.202 1150.4 866.494Z" stroke="#7BD3FB" stroke-width="3" stroke-miterlimit="10"/>
<path d="M1172.48 869.697C1203.76 839.513 1225.41 799.261 1230.37 756.525C1233.77 727.261 1228.49 696.23 1211.06 671.844C1181.98 631.187 1135.2 608.832 1087.67 597.736C1057.67 590.786 1027.31 585.509 996.732 581.928C981.894 580.195 967.154 578.9 952.646 578.034C884.029 574.452 832.622 543.329 773.636 505.684C742.849 486.037 709.306 465.668 676.005 450.63C633.248 431.16 565.561 414.826 532.732 447.661C527.961 452.613 523.809 458.126 520.365 464.078C515.3 472.432 510.782 481.177 503.945 489.017C485.629 510.035 453.092 520.466 421.849 528.028C371.749 540.15 315.717 558.954 292.555 609.266C271.61 654.779 284.157 707.341 309.54 749.073C326.399 776.869 348.021 801.477 373.414 821.768C399.967 842.815 431.481 856.883 460.487 878.514C515.624 919.68 566.661 967.772 629.631 990.416C672.169 1005.66 721.03 1012.6 769.467 1023.02C831.405 1036.38 890.017 1055.86 941.938 1028.69C971.132 1013.43 992.146 986.476 1020.19 965.573C1067.64 929.887 1128.82 911.804 1172.48 869.697Z" stroke="#7BD3FB" stroke-width="3" stroke-miterlimit="10"/>
<path d="M1194.51 872.827C1226.68 841.865 1248.63 800.298 1253.43 756.383C1256.71 726.327 1251.17 694.584 1233.47 669.369C1203.51 626.753 1155.5 602.021 1106.09 589.036C1075 580.9 1043.41 574.832 1011.52 570.873C996.056 568.952 980.699 567.572 965.593 566.787C893.64 563.262 840.469 530.343 779.194 491.085C746.432 470.081 710.601 448.409 674.99 432.583C629.458 412.156 556.549 395.153 522 432.095C516.996 437.678 512.692 443.851 509.181 450.475C503.982 459.85 499.401 469.617 492.269 478.361C473.184 501.84 438.551 513.453 405.237 521.92C351.936 535.247 291.887 555.506 268.243 609.958C247.295 658.156 262.481 713.14 290.538 756.142C309.12 784.651 332.523 809.703 359.698 830.177C388.094 851.448 421.587 865.196 452.031 887.534C509.921 930.021 562.285 981.015 627.603 1006.08C671.35 1022.85 721.892 1031.59 772.155 1042.38C836.447 1056.12 897.9 1073.61 951.283 1043.48C981.894 1026.22 1003.66 996.946 1033.05 974.412C1083.07 935.816 1148.25 917.427 1194.51 872.827Z" stroke="#7BD3FB" stroke-width="3" stroke-miterlimit="10"/>
<path d="M1216.69 875.924C1249.74 844.168 1271.89 801.326 1276.62 756.232C1279.8 725.359 1273.99 692.925 1255.98 666.803C1225.23 622.226 1175.93 595.132 1124.62 580.242C1092.41 570.945 1059.55 564.088 1026.32 559.727C1010.24 557.636 994.244 556.158 978.527 555.389C903.258 551.933 848.322 517.217 784.755 476.332C750.026 454.004 711.892 430.962 674.015 414.392C625.711 393.024 547.478 375.355 511.305 416.298C506.048 422.58 501.602 429.498 498.071 436.89C492.733 447.253 488.092 458.059 480.668 467.722C460.793 493.649 423.95 506.539 388.679 515.815C332.236 530.455 268.113 552.062 244.003 610.652C223.056 661.55 240.895 719.022 271.6 763.181C291.895 792.447 317.079 817.998 346.045 838.709C376.314 860.18 411.766 873.596 443.652 896.657C504.279 940.468 558.018 994.353 625.655 1021.86C670.582 1040.1 722.835 1050.62 774.901 1061.69C841.471 1075.75 905.798 1091.19 960.57 1058.16C992.594 1038.87 1015.1 1007.3 1045.92 983.129C1098.49 941.727 1167.69 923.029 1216.69 875.924Z" stroke="#7BD3FB" stroke-width="3" stroke-miterlimit="10"/>
<path d="M1238.79 879.055C1272.72 846.488 1295.24 802.353 1299.76 756.14C1302.82 724.474 1296.75 691.345 1278.48 664.443C1246.86 617.77 1196.33 588.367 1143.07 571.587C1109.77 561.131 1075.66 553.489 1041.08 548.743C1024.38 546.465 1007.77 544.902 991.444 544.148C912.839 540.748 856.17 504.23 790.365 461.721C753.66 438.037 713.232 413.743 673.087 396.343C622.005 374.002 538.529 355.65 500.674 400.795C495.146 407.652 490.502 415.176 486.85 423.193C481.393 434.556 476.622 446.399 468.985 456.947C448.341 485.336 409.335 499.491 372.027 509.595C312.36 525.565 244.208 548.493 219.639 611.253C198.669 664.823 219.161 724.629 252.535 770.11C274.543 800.13 301.512 826.171 332.278 847.113C364.426 868.816 401.822 881.904 435.141 905.655C498.509 950.807 553.639 1007.65 623.563 1037.53C669.669 1057.24 723.636 1069.55 777.514 1080.93C846.495 1095.48 913.548 1108.87 969.936 1072.88C1003.33 1051.54 1026.61 1017.7 1058.88 991.877C1113.92 947.654 1187.11 928.65 1238.79 879.055Z" stroke="#7BD3FB" stroke-width="3" stroke-miterlimit="10"/>
<path d="M1260.89 882.17C1295.65 848.82 1318.57 803.364 1322.86 755.922C1325.83 723.456 1319.48 689.619 1300.92 661.875C1268.53 613.408 1216.69 581.562 1161.62 562.874C1127.23 551.261 1091.86 542.83 1055.94 537.688C1038.61 535.208 1021.37 533.579 1004.43 532.841C922.506 529.494 864.055 491.183 795.876 447.064C757.236 422.049 714.501 396.438 672.078 378.244C618.209 354.966 529.441 335.942 489.964 385.172C484.221 392.667 479.448 400.858 475.76 409.552C470.166 421.919 465.394 434.755 457.4 446.236C435.97 477.089 394.836 492.589 355.506 503.432C292.726 520.776 220.4 544.989 195.402 611.895C174.397 668.156 197.528 730.385 233.616 777.092C257.321 807.896 286.07 834.461 318.644 855.658C352.613 877.487 392.02 890.248 426.778 914.706C492.87 961.202 549.403 1020.83 621.615 1053.25C668.896 1074.4 724.563 1088.53 780.27 1100.22C851.595 1115.16 921.5 1126.47 979.332 1087.6C1014.09 1064.23 1038.18 1028.12 1071.85 1000.62C1129.34 953.566 1206.41 934.164 1260.89 882.17Z" stroke="#7BD3FB" stroke-width="3" stroke-miterlimit="10"/>
<path d="M1283 885.281C1318.63 851.072 1341.83 804.392 1346 755.781C1348.87 722.515 1342.23 687.974 1323.4 659.385C1290.18 608.949 1237.06 574.735 1180.1 554.143C1144.64 541.372 1108 532.145 1070.73 526.595C1053.05 523.956 1035.24 522.258 1017.38 521.509C932.114 518.202 871.918 478.106 801.431 432.363C760.82 406.007 715.78 379.096 671.096 360.104C614.468 335.866 520.413 316.186 479.265 369.513C473.283 377.647 468.36 386.51 464.615 395.889C458.882 409.244 454.049 423.118 445.764 435.519C423.561 468.817 380.263 485.497 338.914 497.25C272.993 515.838 196.518 541.449 171.113 612.531C150.025 671.493 175.872 736.111 214.627 784.056C240.039 815.584 270.561 842.619 304.922 864.034C340.769 886.165 382.139 898.61 418.351 923.771C487.18 971.591 545.056 1034.11 619.684 1068.96C668.141 1091.55 725.605 1107.47 783.027 1119.5C856.639 1134.9 929.323 1144.1 988.685 1102.34C1024.8 1076.92 1049.7 1038.52 1084.79 1009.41C1144.77 959.493 1225.88 939.759 1283 885.281Z" stroke="#7BD3FB" stroke-width="3" stroke-miterlimit="10"/>
<path d="M1305.1 888.411C1341.62 853.408 1365.11 805.432 1369.11 755.626C1371.81 721.579 1364.99 686.308 1345.88 656.893C1311.83 604.504 1257.42 567.929 1198.58 545.428C1162.06 531.503 1124.17 521.482 1085.55 515.531C1067.27 512.707 1048.84 510.917 1030.36 510.168C941.761 506.933 879.816 465.038 807.042 417.683C764.455 389.971 717.127 361.755 670.166 341.97C610.75 316.794 511.317 296.358 468.621 353.875C462.395 362.644 457.315 372.175 453.506 382.234C447.653 396.591 442.757 411.487 434.192 424.787C411.203 460.55 365.809 478.481 322.389 491.069C253.343 510.966 172.663 537.954 146.89 613.151C125.749 674.809 154.256 741.862 195.689 791.025C222.786 823.301 255.077 850.828 291.23 872.471C328.948 894.871 372.335 906.937 409.916 932.803C481.485 981.963 540.75 1047.36 617.616 1084.66C667.244 1108.69 726.301 1126.48 785.673 1138.83C861.695 1154.61 937.129 1161.74 998.026 1117.04C1035.48 1089.55 1061.17 1048.9 1097.73 1018.14C1160.19 965.404 1245.3 945.38 1305.1 888.411Z" stroke="#7BD3FB" stroke-width="3" stroke-miterlimit="10"/>
<path d="M1327.21 891.524C1364.6 855.747 1388.4 806.455 1392.24 755.488C1394.88 720.616 1387.75 684.697 1368.34 654.409C1333.47 600.046 1277.79 561.121 1217.06 536.699C1179.48 521.626 1140.33 510.816 1100.35 504.472C1081.44 501.464 1062.36 499.588 1043.22 498.855C951.29 495.677 887.684 451.843 812.521 403.035C768.03 373.899 718.33 344.466 669.108 323.883C606.934 297.747 502.213 276.655 457.863 338.265C451.071 347.617 446.415 357.896 442.285 368.623C436.296 383.984 431.337 399.903 422.481 414.123C398.715 452.314 351.113 471.539 305.722 484.94C233.534 506.08 148.67 534.458 122.477 613.85C101.269 678.206 132.476 747.652 176.595 798.065C205.398 831.095 239.48 859.114 277.451 880.982C317.021 903.568 362.31 915.35 401.414 941.92C475.723 992.421 536.393 1060.68 615.544 1100.44C666.395 1125.97 727.212 1145.45 788.361 1158.11C866.75 1174.32 944.915 1179.36 1007.37 1131.77C1046.14 1102.21 1072.69 1059.3 1110.63 1026.82C1175.61 971.333 1264.8 950.969 1327.21 891.524Z" stroke="#7BD3FB" stroke-width="3" stroke-miterlimit="10"/>
<path d="M1349.31 894.638C1387.6 858.063 1411.69 807.492 1415.38 755.33C1417.9 719.662 1410.49 682.918 1390.73 651.935C1355.11 595.605 1298.12 554.321 1235.54 527.983C1196.89 511.765 1156.47 500.158 1115.12 493.402C1095.61 490.218 1075.92 488.266 1056.16 487.558C960.907 484.416 895.54 438.802 818.065 388.353C771.618 357.873 719.627 327.12 668.193 305.728C603.166 278.669 493.223 256.907 447.197 322.598C440.166 332.567 435.409 343.621 431.174 354.952C425.046 371.301 420.012 388.194 410.875 403.382C386.34 444.034 336.592 464.521 289.212 478.739C213.909 501.237 124.822 530.911 98.3006 614.443C77.0285 681.514 110.923 753.372 157.656 805.017C188.162 838.796 224.028 867.309 263.81 889.408C305.24 912.215 352.491 923.68 393.05 950.953C470.08 1002.78 532.158 1073.93 613.595 1116.13C665.696 1143.07 728.061 1164.44 791.038 1177.41C871.76 1194.05 952.655 1196.99 1016.69 1146.5C1056.78 1114.88 1084.16 1069.71 1123.54 1035.63C1191.04 977.244 1284.16 956.605 1349.31 894.638Z" stroke="#7BD3FB" stroke-width="3" stroke-miterlimit="10"/>
<path d="M1371.42 897.801C1410.67 860.233 1434.57 809.418 1438.5 755.209C1440.92 718.777 1433.26 681.387 1413.33 649.452C1376.84 591.16 1318.56 547.529 1254.08 519.291C1214.39 501.928 1172.72 489.523 1130 482.356C1109.89 478.985 1089.58 476.942 1069.2 476.24C970.608 473.17 903.491 425.825 823.71 373.683C775.292 341.863 720.996 309.809 667.235 287.635C599.519 259.617 484.236 237.193 436.572 306.973C429.289 317.579 424.438 329.287 420.085 341.396C413.853 358.742 408.75 376.71 399.328 392.765C374.003 435.865 322.105 457.598 272.659 472.668C194.229 496.474 100.898 527.5 74.0519 615.19C52.6778 684.881 89.2105 759.316 138.771 812.077C170.953 846.602 208.603 875.585 250.205 897.86C293.491 920.871 342.726 932.033 384.719 959.997C464.485 1013.15 527.972 1087.18 611.682 1131.85C664.91 1160.25 729.04 1183.42 793.83 1196.7C876.847 1213.75 960.433 1214.58 1026.14 1161.21C1067.54 1127.5 1095.75 1080.1 1136.59 1044.41C1206.46 983.171 1303.6 962.207 1371.42 897.801Z" stroke="#7BD3FB" stroke-width="3" stroke-miterlimit="10"/>
<path d="M1393.53 900.88C1433.62 862.47 1457.91 810.451 1461.63 755.035C1463.93 717.759 1456.02 679.689 1435.75 646.94C1398.47 586.671 1338.76 540.828 1272.5 510.521C1231.75 492.043 1188.81 478.833 1144.72 471.213C1124 467.656 1103.06 465.528 1082.05 464.844C980.136 461.811 911.234 412.656 829.184 358.915C778.798 325.771 722.182 292.42 666.177 269.445C595.666 240.457 475.13 217.387 425.792 291.247C418.271 302.47 413.267 314.878 408.842 327.584C402.478 345.952 397.327 364.938 387.586 381.867C361.492 427.428 307.432 450.427 255.981 466.318C174.425 491.433 76.8491 523.81 49.6742 615.641C28.1727 688.147 67.4039 764.888 119.716 818.885C153.587 854.206 193.031 883.718 236.47 906.24C281.619 929.487 332.858 940.29 376.24 968.971C458.747 1023.47 523.655 1100.36 609.635 1147.48C668.242 1179.32 731.189 1202.41 796.476 1216.01C881.89 1233.47 968.197 1232.24 1035.42 1175.93C1078.12 1140.17 1107.2 1090.51 1149.46 1053.21C1221.89 989.083 1323.03 967.828 1393.53 900.88Z" stroke="#7BD3FB" stroke-width="3" stroke-miterlimit="10"/>
<path d="M1415.62 903.995C1456.56 864.744 1481.24 811.512 1484.74 754.883C1486.95 716.789 1478.78 678.041 1458.23 644.536C1420.13 582.31 1359.2 534.053 1291.01 501.902C1249.22 482.297 1205.02 468.302 1159.57 460.28C1138.24 456.544 1116.68 454.335 1095.04 453.671C989.796 450.694 919.083 399.771 834.791 344.39C782.423 309.857 723.542 275.231 665.243 251.465C591.984 221.566 466.138 197.811 415.141 275.748C407.364 287.591 402.241 300.692 397.745 314.081C391.242 333.437 385.979 353.457 376.006 371.342C349.073 419.363 292.949 443.606 239.445 460.328C154.648 486.777 52.9125 520.505 25.4217 616.456C3.88863 691.67 45.887 770.874 100.762 826.029C136.324 862.091 177.534 892.1 222.766 914.869C269.757 938.254 322.987 948.718 367.795 978.125C453.058 1033.96 519.353 1113.64 607.617 1163.28C663.228 1194.56 730.756 1221.43 799.164 1235.31C886.924 1253.11 975.915 1249.88 1044.77 1190.66C1088.75 1152.82 1118.67 1100.86 1162.38 1061.93C1237.31 995.011 1342.46 973.431 1415.62 903.995Z" stroke="#7BD3FB" stroke-width="3" stroke-miterlimit="10"/>
<path d="M1437.72 907.127C1479.51 867.022 1504.58 812.573 1507.87 754.726C1509.96 715.857 1501.59 676.35 1480.69 641.965C1441.87 577.711 1379.56 527.147 1309.48 493.106C1266.65 472.346 1221.19 457.553 1174.35 449.139C1152.4 445.221 1130.2 442.931 1107.91 442.288C999.346 439.364 926.916 386.634 840.333 329.625C786.024 293.813 724.841 257.817 664.264 233.258C588.207 202.373 457.112 177.987 404.461 260.017C396.433 272.498 391.183 286.259 386.587 300.354C379.964 320.71 374.686 341.742 364.369 360.541C336.732 411.009 278.381 436.532 222.823 454.086C134.883 481.847 28.9126 516.89 1.12029 617.028C-20.5293 694.95 24.2002 776.455 81.7432 832.932C119.013 869.706 162.001 900.185 209.031 923.181C257.93 946.929 313.058 957.092 359.384 987.256C447.384 1044.41 515.079 1126.94 605.637 1179.07C662.44 1211.8 731.657 1240.42 801.791 1254.69C892.029 1272.88 983.662 1267.54 1054.12 1205.39C1099.38 1165.47 1130.2 1111.31 1175.33 1070.69C1252.74 1000.92 1361.88 979.054 1437.72 907.127Z" stroke="#7BD3FB" stroke-width="3" stroke-miterlimit="10"/>
<path d="M1459.84 910.237C1502.46 869.285 1527.91 813.634 1531.01 754.585C1532.97 714.837 1524.33 674.708 1503.14 639.412C1463.51 573.27 1399.91 520.307 1327.97 484.391C1284.11 462.492 1237.38 446.899 1189.17 438.074C1166.65 433.99 1143.85 431.619 1120.97 430.982C1009.07 428.131 934.865 373.624 845.937 314.981C789.671 277.895 726.169 240.533 663.348 215.172C584.536 183.343 448.137 158.304 393.812 244.415C385.544 257.513 380.174 271.967 375.492 286.748C368.732 308.109 363.391 330.163 352.803 349.894C324.376 402.81 263.862 429.599 206.332 447.966C115.234 477.044 5.0188 513.439 -23.0859 617.713C-44.8285 698.374 2.64636 782.244 62.8556 839.958C101.802 877.522 146.573 908.527 195.427 931.77C246.152 955.66 303.243 965.507 351.024 996.306C441.749 1054.81 510.954 1140.06 603.693 1194.78C661.738 1228.88 732.585 1259.38 804.632 1273.96C897.04 1292.6 991.363 1285.15 1063.47 1220.12C1110.02 1178.12 1141.72 1121.71 1188.26 1079.44C1268.16 1006.85 1381.33 984.671 1459.84 910.237Z" stroke="#7BD3FB" stroke-width="3" stroke-miterlimit="10"/>
<path d="M1203.97 426.998C1180.82 422.713 1157.37 420.25 1133.84 419.632C1018.62 416.817 942.655 360.546 851.436 300.275C793.168 261.787 727.405 223.166 662.291 196.947C580.672 164.167 439.018 138.466 383.054 228.666C362.237 262.203 359.499 304.157 341.085 339.059C311.885 394.419 249.229 422.486 189.601 441.712C95.3558 472.086 -19.0874 509.829 -47.5171 618.261C-69.36 701.627 -19.136 787.879 43.7268 846.85C84.3727 885.145 130.919 916.64 181.576 940.123C234.181 964.246 293.248 973.757 342.454 1005.28C435.943 1065.15 506.563 1153.32 601.623 1210.42C736.885 1291.72 941.652 1355.72 1072.8 1234.85C1120.62 1190.76 1153.21 1132.11 1201.18 1088.21C1283.54 1012.79 1400.75 990.277 1481.87 913.367C1555.28 843.824 1578.39 725.889 1525.57 637.034C1460.31 527.061 1331.61 450.389 1203.97 426.998Z" stroke="#7BD3FB" stroke-width="3" stroke-miterlimit="10"/>
</g>
</svg>
